<?xml version="1.0" standalone="no"?><!DOCTYPE svg PUBLIC "-//W3C//DTD SVG 1.1//EN" "http://www.w3.org/Graphics/SVG/1.1/DTD/svg11.dtd"><svg t="1601978947450" class="icon" viewBox="0 0 1024 1024" version="1.1" xmlns="http://www.w3.org/2000/svg" p-id="21930" xmlns:xlink="http://www.w3.org/1999/xlink" width="200" height="200"><defs><style type="text/css"></style></defs><path d="M712.61 466.96c11.41 0 22.94 4.36 31.65 13.07 17.44 17.44 17.44 45.77 0 63.2L341.71 945.79c-17.43 17.43-45.77 17.43-63.2 0-17.44-17.44-17.44-45.77 0-63.2l402.55-402.56c8.72-8.71 20.13-13.07 31.55-13.07z m0 0" p-id="21931"></path><path d="M310.16 64.41c11.42 0 22.94 4.36 31.65 13.08l402.45 402.55c17.44 17.44 17.44 45.77 0 63.2s-45.77 17.44-63.2 0L278.51 140.68c-17.44-17.43-17.44-45.77 0-63.2 8.71-8.72 20.13-13.07 31.65-13.07z m0 0" p-id="21932"></path></svg>